{
    "asset" : {
        "generator" : "Khronos glTF Blender I/O v1.2.75",
        "version" : "2.0"
    },
    "scene" : 0,
    "scenes" : [
        {
            "name" : "Scene",
            "nodes" : [
                0,
                1,
                8
            ]
        }
    ],
    "nodes" : [
        {
            "name" : "Light",
            "rotation" : [
                0.16907575726509094,
                0.7558803558349609,
                -0.27217137813568115,
                0.570947527885437
            ],
            "translation" : [
                4.076245307922363,
                5.903861999511719,
                -1.0054539442062378
            ]
        },
        {
            "name" : "Camera",
            "rotation" : [
                0.483536034822464,
                0.33687159419059753,
                -0.20870360732078552,
                0.7804827094078064
            ],
            "translation" : [
                7.358891487121582,
                4.958309173583984,
                6.925790786743164
            ]
        },
        {
            "name" : "Bone.004",
            "translation" : [
                0,
                0.8968548774719238,
                0
            ]
        },
        {
            "children" : [
                2
            ],
            "name" : "Bone.003",
            "translation" : [
                0,
                0.924124002456665,
                0
            ]
        },
        {
            "children" : [
                3
            ],
            "name" : "Bone.002",
            "translation" : [
                0,
                0.8483760356903076,
                0
            ]
        },
        {
            "children" : [
                4
            ],
            "name" : "Bone.001",
            "translation" : [
                0,
                1,
                0
            ]
        },
        {
            "children" : [
                5
            ],
            "name" : "Bone"
        },
        {
            "mesh" : 0,
            "name" : "Cylinder",
            "skin" : 0
        },
        {
            "children" : [
                7,
                6
            ],
            "name" : "Armature",
            "scale" : [
                1.5595647096633911,
                1.5595647096633911,
                1.5595647096633911
            ]
        }
    ],
    "meshes" : [
        {
            "name" : "Cylinder",
            "primitives" : [
                {
                    "attributes" : {
                        "POSITION" : 0,
                        "NORMAL" : 1,
                        "TEXCOORD_0" : 2,
                        "JOINTS_0" : 3,
                        "WEIGHTS_0" : 4
                    },
                    "indices" : 5
                }
            ]
        }
    ],
    "skins" : [
        {
            "inverseBindMatrices" : 6,
            "joints" : [
                6,
                5,
                4,
                3,
                2
            ],
            "name" : "Armature"
        }
    ],
    "accessors" : [
        {
            "bufferView" : 0,
            "componentType" : 5126,
            "count" : 224,
            "max" : [
                0.2396705448627472,
                6.887543201446533,
                0.23966936767101288
            ],
            "min" : [
                -0.23966936767101288,
                0.007628202438354492,
                -0.23966936767101288
            ],
            "type" : "VEC3"
        },
        {
            "bufferView" : 1,
            "componentType" : 5126,
            "count" : 224,
            "type" : "VEC3"
        },
        {
            "bufferView" : 2,
            "componentType" : 5126,
            "count" : 224,
            "type" : "VEC2"
        },
        {
            "bufferView" : 3,
            "componentType" : 5123,
            "count" : 224,
            "type" : "VEC4"
        },
        {
            "bufferView" : 4,
            "componentType" : 5126,
            "count" : 224,
            "type" : "VEC4"
        },
        {
            "bufferView" : 5,
            "componentType" : 5123,
            "count" : 420,
            "type" : "SCALAR"
        },
        {
            "bufferView" : 6,
            "componentType" : 5126,
            "count" : 5,
            "type" : "MAT4"
        }
    ],
    "bufferViews" : [
        {
            "buffer" : 0,
            "byteLength" : 2688,
            "byteOffset" : 0
        },
        {
            "buffer" : 0,
            "byteLength" : 2688,
            "byteOffset" : 2688
        },
        {
            "buffer" : 0,
            "byteLength" : 1792,
            "byteOffset" : 5376
        },
        {
            "buffer" : 0,
            "byteLength" : 1792,
            "byteOffset" : 7168
        },
        {
            "buffer" : 0,
            "byteLength" : 3584,
            "byteOffset" : 8960
        },
        {
            "buffer" : 0,
            "byteLength" : 840,
            "byteOffset" : 12544
        },
        {
            "buffer" : 0,
            "byteLength" : 320,
            "byteOffset" : 13384
        }
    ],
    "buffers" : [
        {
            "byteLength" : 13704,
            "uri" : "data:application/octet-stream;base64,"
        }
    ]
}
