{
    "asset" : {
        "generator" : "Khronos glTF Blender I/O v1.2.75",
        "version" : "2.0"
    },
    "scene" : 0,
    "scenes" : [
        {
            "name" : "Scene",
            "nodes" : [
                0,
                1,
                2,
                3,
                4,
                5,
                6,
                15
            ]
        }
    ],
    "nodes" : [
        {
            "mesh" : 0,
            "name" : "Roots",
            "scale" : [
                0.02394290454685688,
                0.027396226301789284,
                0.02034793421626091
            ],
            "translation" : [
                0.10184106230735779,
                0.022175997495651245,
                -0.03727558255195618
            ]
        },
        {
            "mesh" : 1,
            "name" : "Leaf",
            "scale" : [
                0.1988733410835266,
                0.1988733410835266,
                0.1988733410835266
            ],
            "translation" : [
                -0.5900332927703857,
                0.24198555946350098,
                -0.290227472782135
            ]
        },
        {
            "mesh" : 2,
            "name" : "Leaf.001",
            "rotation" : [
                0,
                0.9321029186248779,
                0,
                0.3621934950351715
            ],
            "scale" : [
                0.18014255166053772,
                0.18014255166053772,
                0.18014255166053772
            ],
            "translation" : [
                0.2153843641281128,
                0.23888641595840454,
                0.5568950176239014
            ]
        },
        {
            "mesh" : 3,
            "name" : "Leaf.002",
            "rotation" : [
                0,
                -0.8959423899650574,
                0,
                0.4441702663898468
            ],
            "scale" : [
                0.198873370885849,
                0.1988733410835266,
                0.198873370885849
            ],
            "translation" : [
                0.556221604347229,
                0.2582662105560303,
                -0.35683488845825195
            ]
        },
        {
            "mesh" : 4,
            "name" : "Leaf.003",
            "rotation" : [
                0,
                -0.999855101108551,
                0,
                0.01702388934791088
            ],
            "scale" : [
                0.15559843182563782,
                0.15559840202331543,
                0.15559843182563782
            ],
            "translation" : [
                0.4941757917404175,
                0.1613580584526062,
                0.1868148148059845
            ]
        },
        {
            "mesh" : 5,
            "name" : "Leaf.004",
            "rotation" : [
                0,
                0.34664487838745117,
                0,
                -0.9379964470863342
            ],
            "scale" : [
                0.15559840202331543,
                0.15559840202331543,
                0.15559840202331543
            ],
            "translation" : [
                -0.1475648730993271,
                0.1613580584526062,
                -0.5560217499732971
            ]
        },
        {
            "mesh" : 6,
            "name" : "Leaf.005",
            "rotation" : [
                -0.03987237066030502,
                -0.4643717408180237,
                -0.09786760061979294,
                -0.8793128132820129
            ],
            "scale" : [
                0.14661023020744324,
                0.14661020040512085,
                0.14661023020744324
            ],
            "translation" : [
                -0.4033316969871521,
                0.13250911235809326,
                0.29717737436294556
            ]
        },
        {
            "name" : "Plant_head",
            "rotation" : [
                -0.24665801227092743,
                -4.3922724735026783e-17,
                -7.530230765442607e-17,
                0.9691026210784912
            ],
            "translation" : [
                0,
                1.6102442741394043,
                0
            ]
        },
        {
            "children" : [
                7
            ],
            "name" : "Bone.004",
            "translation" : [
                0,
                1.8897089958190918,
                0
            ]
        },
        {
            "children" : [
                8
            ],
            "name" : "Bone.003",
            "translation" : [
                0,
                1.6634759902954102,
                0
            ]
        },
        {
            "children" : [
                9
            ],
            "name" : "Bone.002",
            "translation" : [
                0,
                1.8764004707336426,
                0
            ]
        },
        {
            "children" : [
                10
            ],
            "name" : "Bone.001",
            "translation" : [
                0,
                1.5190043449401855,
                0
            ]
        },
        {
            "children" : [
                11
            ],
            "name" : "Bone"
        },
        {
            "name" : "IKpole_target",
            "translation" : [
                1.6959562602886355e-15,
                2.744204521179199,
                -2.4557199478149414
            ]
        },
        {
            "mesh" : 7,
            "name" : "Flower body",
            "skin" : 0
        },
        {
            "children" : [
                14,
                12,
                13
            ],
            "name" : "Armature",
            "scale" : [
                0.2971550226211548,
                0.2971550226211548,
                0.2971550226211548
            ],
            "translation" : [
                0.002453520894050598,
                0.25177717208862305,
                -0.0021156370639801025
            ]
        }
    ],
    "meshes" : [
        {
            "name" : "Cylinder.003",
            "primitives" : [
                {
                    "attributes" : {
                        "POSITION" : 0,
                        "NORMAL" : 1,
                        "TEXCOORD_0" : 2
                    },
                    "indices" : 3
                }
            ]
        },
        {
            "name" : "Plane",
            "primitives" : [
                {
                    "attributes" : {
                        "POSITION" : 4,
                        "NORMAL" : 5,
                        "TEXCOORD_0" : 6
                    },
                    "indices" : 7
                }
            ]
        },
        {
            "name" : "Plane.001",
            "primitives" : [
                {
                    "attributes" : {
                        "POSITION" : 8,
                        "NORMAL" : 9,
                        "TEXCOORD_0" : 10
                    },
                    "indices" : 7
                }
            ]
        },
        {
            "name" : "Plane.002",
            "primitives" : [
                {
                    "attributes" : {
                        "POSITION" : 11,
                        "NORMAL" : 12,
                        "TEXCOORD_0" : 13
                    },
                    "indices" : 7
                }
            ]
        },
        {
            "name" : "Plane.003",
            "primitives" : [
                {
                    "attributes" : {
                        "POSITION" : 14,
                        "NORMAL" : 15,
                        "TEXCOORD_0" : 16
                    },
                    "indices" : 7
                }
            ]
        },
        {
            "name" : "Plane.004",
            "primitives" : [
                {
                    "attributes" : {
                        "POSITION" : 17,
                        "NORMAL" : 18,
                        "TEXCOORD_0" : 19
                    },
                    "indices" : 7
                }
            ]
        },
        {
            "name" : "Plane.005",
            "primitives" : [
                {
                    "attributes" : {
                        "POSITION" : 20,
                        "NORMAL" : 21,
                        "TEXCOORD_0" : 22
                    },
                    "indices" : 7
                }
            ]
        },
        {
            "name" : "Cylinder",
            "primitives" : [
                {
                    "attributes" : {
                        "POSITION" : 23,
                        "NORMAL" : 24,
                        "TEXCOORD_0" : 25,
                        "JOINTS_0" : 26,
                        "WEIGHTS_0" : 27
                    },
                    "indices" : 28
                }
            ]
        }
    ],
    "skins" : [
        {
            "inverseBindMatrices" : 29,
            "joints" : [
                12,
                11,
                10,
                9,
                8,
                7,
                13
            ],
            "name" : "Armature"
        }
    ],
    "accessors" : [
        {
            "bufferView" : 0,
            "componentType" : 5126,
            "count" : 4194,
            "max" : [
                34.399478912353516,
                2.596853494644165,
                35.734127044677734
            ],
            "min" : [
                -31.426841735839844,
                -4.301545143127441,
                -36.3203125
            ],
            "type" : "VEC3"
        },
        {
            "bufferView" : 1,
            "componentType" : 5126,
            "count" : 4194,
            "type" : "VEC3"
        },
        {
            "bufferView" : 2,
            "componentType" : 5126,
            "count" : 4194,
            "type" : "VEC2"
        },
        {
            "bufferView" : 3,
            "componentType" : 5123,
            "count" : 6366,
            "type" : "SCALAR"
        },
        {
            "bufferView" : 4,
            "componentType" : 5126,
            "count" : 80,
            "max" : [
                2.4917242527008057,
                0.5309922695159912,
                3.163663387298584
            ],
            "min" : [
                -2.222961664199829,
                -0.2021021842956543,
                -0.29771625995635986
            ],
            "type" : "VEC3"
        },
        {
            "bufferView" : 5,
            "componentType" : 5126,
            "count" : 80,
            "type" : "VEC3"
        },
        {
            "bufferView" : 6,
            "componentType" : 5126,
            "count" : 80,
            "type" : "VEC2"
        },
        {
            "bufferView" : 7,
            "componentType" : 5123,
            "count" : 120,
            "type" : "SCALAR"
        },
        {
            "bufferView" : 8,
            "componentType" : 5126,
            "count" : 80,
            "max" : [
                2.4917242527008057,
                0.5309922695159912,
                3.163663387298584
            ],
            "min" : [
                -2.222961664199829,
                -0.2021021842956543,
                -0.29771625995635986
            ],
            "type" : "VEC3"
        },
        {
            "bufferView" : 9,
            "componentType" : 5126,
            "count" : 80,
            "type" : "VEC3"
        },
        {
            "bufferView" : 10,
            "componentType" : 5126,
            "count" : 80,
            "type" : "VEC2"
        },
        {
            "bufferView" : 11,
            "componentType" : 5126,
            "count" : 80,
            "max" : [
                2.4917242527008057,
                0.5309922695159912,
                3.163663387298584
            ],
            "min" : [
                -2.222961664199829,
                -0.2021021842956543,
                -0.29771625995635986
            ],
            "type" : "VEC3"
        },
        {
            "bufferView" : 12,
            "componentType" : 5126,
            "count" : 80,
            "type" : "VEC3"
        },
        {
            "bufferView" : 13,
            "componentType" : 5126,
            "count" : 80,
            "type" : "VEC2"
        },
        {
            "bufferView" : 14,
            "componentType" : 5126,
            "count" : 80,
            "max" : [
                2.4917242527008057,
                0.5309922695159912,
                3.163663387298584
            ],
            "min" : [
                -2.222961664199829,
                -0.2021021842956543,
                -0.29771625995635986
            ],
            "type" : "VEC3"
        },
        {
            "bufferView" : 15,
            "componentType" : 5126,
            "count" : 80,
            "type" : "VEC3"
        },
        {
            "bufferView" : 16,
            "componentType" : 5126,
            "count" : 80,
            "type" : "VEC2"
        },
        {
            "bufferView" : 17,
            "componentType" : 5126,
            "count" : 80,
            "max" : [
                2.4917242527008057,
                0.5309922695159912,
                3.163663387298584
            ],
            "min" : [
                -2.222961664199829,
                -0.2021021842956543,
                -0.29771625995635986
            ],
            "type" : "VEC3"
        },
        {
            "bufferView" : 18,
            "componentType" : 5126,
            "count" : 80,
            "type" : "VEC3"
        },
        {
            "bufferView" : 19,
            "componentType" : 5126,
            "count" : 80,
            "type" : "VEC2"
        },
        {
            "bufferView" : 20,
            "componentType" : 5126,
            "count" : 80,
            "max" : [
                2.4917242527008057,
                0.5309922695159912,
                3.163663387298584
            ],
            "min" : [
                -2.222961664199829,
                -0.2021021842956543,
                -0.29771625995635986
            ],
            "type" : "VEC3"
        },
        {
            "bufferView" : 21,
            "componentType" : 5126,
            "count" : 80,
            "type" : "VEC3"
        },
        {
            "bufferView" : 22,
            "componentType" : 5126,
            "count" : 80,
            "type" : "VEC2"
        },
        {
            "bufferView" : 23,
            "componentType" : 5126,
            "count" : 3619,
            "max" : [
                0.13762995600700378,
                3.2228145599365234,
                0.13964669406414032
            ],
            "min" : [
                -0.1327229142189026,
                -0.00229615718126297,
                -0.14387787878513336
            ],
            "type" : "VEC3"
        },
        {
            "bufferView" : 24,
            "componentType" : 5126,
            "count" : 3619,
            "type" : "VEC3"
        },
        {
            "bufferView" : 25,
            "componentType" : 5126,
            "count" : 3619,
            "type" : "VEC2"
        },
        {
            "bufferView" : 26,
            "componentType" : 5123,
            "count" : 3619,
            "type" : "VEC4"
        },
        {
            "bufferView" : 27,
            "componentType" : 5126,
            "count" : 3619,
            "type" : "VEC4"
        },
        {
            "bufferView" : 28,
            "componentType" : 5123,
            "count" : 5571,
            "type" : "SCALAR"
        },
        {
            "bufferView" : 29,
            "componentType" : 5126,
            "count" : 7,
            "type" : "MAT4"
        }
    ],
    "bufferViews" : [
        {
            "buffer" : 0,
            "byteLength" : 50328,
            "byteOffset" : 0
        },
        {
            "buffer" : 0,
            "byteLength" : 50328,
            "byteOffset" : 50328
        },
        {
            "buffer" : 0,
            "byteLength" : 33552,
            "byteOffset" : 100656
        },
        {
            "buffer" : 0,
            "byteLength" : 12732,
            "byteOffset" : 134208
        },
        {
            "buffer" : 0,
            "byteLength" : 960,
            "byteOffset" : 146940
        },
        {
            "buffer" : 0,
            "byteLength" : 960,
            "byteOffset" : 147900
        },
        {
            "buffer" : 0,
            "byteLength" : 640,
            "byteOffset" : 148860
        },
        {
            "buffer" : 0,
            "byteLength" : 240,
            "byteOffset" : 149500
        },
        {
            "buffer" : 0,
            "byteLength" : 960,
            "byteOffset" : 149740
        },
        {
            "buffer" : 0,
            "byteLength" : 960,
            "byteOffset" : 150700
        },
        {
            "buffer" : 0,
            "byteLength" : 640,
            "byteOffset" : 151660
        },
        {
            "buffer" : 0,
            "byteLength" : 960,
            "byteOffset" : 152300
        },
        {
            "buffer" : 0,
            "byteLength" : 960,
            "byteOffset" : 153260
        },
        {
            "buffer" : 0,
            "byteLength" : 640,
            "byteOffset" : 154220
        },
        {
            "buffer" : 0,
            "byteLength" : 960,
            "byteOffset" : 154860
        },
        {
            "buffer" : 0,
            "byteLength" : 960,
            "byteOffset" : 155820
        },
        {
            "buffer" : 0,
            "byteLength" : 640,
            "byteOffset" : 156780
        },
        {
            "buffer" : 0,
            "byteLength" : 960,
            "byteOffset" : 157420
        },
        {
            "buffer" : 0,
            "byteLength" : 960,
            "byteOffset" : 158380
        },
        {
            "buffer" : 0,
            "byteLength" : 640,
            "byteOffset" : 159340
        },
        {
            "buffer" : 0,
            "byteLength" : 960,
            "byteOffset" : 159980
        },
        {
            "buffer" : 0,
            "byteLength" : 960,
            "byteOffset" : 160940
        },
        {
            "buffer" : 0,
            "byteLength" : 640,
            "byteOffset" : 161900
        },
        {
            "buffer" : 0,
            "byteLength" : 43428,
            "byteOffset" : 162540
        },
        {
            "buffer" : 0,
            "byteLength" : 43428,
            "byteOffset" : 205968
        },
        {
            "buffer" : 0,
            "byteLength" : 28952,
            "byteOffset" : 249396
        },
        {
            "buffer" : 0,
            "byteLength" : 28952,
            "byteOffset" : 278348
        },
        {
            "buffer" : 0,
            "byteLength" : 57904,
            "byteOffset" : 307300
        },
        {
            "buffer" : 0,
            "byteLength" : 11142,
            "byteOffset" : 365204
        },
        {
            "buffer" : 0,
            "byteLength" : 448,
            "byteOffset" : 376348
        }
    ],
    "buffers" : [
        {
            "byteLength" : 376796,
            "uri" : "data:application/octet-stream;base64,"
        }
    ]
}
