{
    "asset" : {
        "generator" : "Khronos glTF Blender I/O v1.2.75",
        "version" : "2.0"
    },
    "scene" : 0,
    "scenes" : [
        {
            "name" : "Scene",
            "nodes" : [
                0,
                1,
                2,
                3,
                4,
                5,
                6,
                7,
                16
            ]
        }
    ],
    "nodes" : [
        {
            "mesh" : 0,
            "name" : "Flower base",
            "scale" : [
                0.0369168259203434,
                0.10193300992250443,
                0.0369168259203434
            ],
            "translation" : [
                0,
                0.08812307566404343,
                0
            ]
        },
        {
            "mesh" : 1,
            "name" : "Roots",
            "scale" : [
                0.02394290454685688,
                0.027396226301789284,
                0.02034793421626091
            ],
            "translation" : [
                0.10184106230735779,
                0.022175997495651245,
                -0.03727558255195618
            ]
        },
        {
            "mesh" : 2,
            "name" : "Leaf",
            "scale" : [
                0.1988733410835266,
                0.1988733410835266,
                0.1988733410835266
            ],
            "translation" : [
                -0.5900332927703857,
                0.24198555946350098,
                -0.290227472782135
            ]
        },
        {
            "mesh" : 3,
            "name" : "Leaf.001",
            "rotation" : [
                0,
                0.9321029186248779,
                0,
                0.3621934950351715
            ],
            "scale" : [
                0.18014255166053772,
                0.18014255166053772,
                0.18014255166053772
            ],
            "translation" : [
                0.2153843641281128,
                0.23888641595840454,
                0.5568950176239014
            ]
        },
        {
            "mesh" : 4,
            "name" : "Leaf.002",
            "rotation" : [
                0,
                -0.8959423899650574,
                0,
                0.4441702663898468
            ],
            "scale" : [
                0.198873370885849,
                0.1988733410835266,
                0.198873370885849
            ],
            "translation" : [
                0.556221604347229,
                0.2582662105560303,
                -0.35683488845825195
            ]
        },
        {
            "mesh" : 5,
            "name" : "Leaf.003",
            "rotation" : [
                0,
                -0.999855101108551,
                0,
                0.01702388934791088
            ],
            "scale" : [
                0.15559843182563782,
                0.15559840202331543,
                0.15559843182563782
            ],
            "translation" : [
                0.4941757917404175,
                0.1613580584526062,
                0.1868148148059845
            ]
        },
        {
            "mesh" : 6,
            "name" : "Leaf.004",
            "rotation" : [
                0,
                0.34664487838745117,
                0,
                -0.9379964470863342
            ],
            "scale" : [
                0.15559840202331543,
                0.15559840202331543,
                0.15559840202331543
            ],
            "translation" : [
                -0.1475648730993271,
                0.1613580584526062,
                -0.5560217499732971
            ]
        },
        {
            "mesh" : 7,
            "name" : "Leaf.005",
            "rotation" : [
                -0.03987237066030502,
                -0.4643717408180237,
                -0.09786760061979294,
                -0.8793128132820129
            ],
            "scale" : [
                0.14661023020744324,
                0.14661020040512085,
                0.14661023020744324
            ],
            "translation" : [
                -0.4033316969871521,
                0.13250911235809326,
                0.29717737436294556
            ]
        },
        {
            "name" : "Plant_head",
            "rotation" : [
                -0.24665801227092743,
                -4.3922724735026783e-17,
                -7.530230765442607e-17,
                0.9691026210784912
            ],
            "translation" : [
                0,
                1.6102442741394043,
                0
            ]
        },
        {
            "children" : [
                8
            ],
            "name" : "Bone.004",
            "translation" : [
                0,
                1.8897089958190918,
                0
            ]
        },
        {
            "children" : [
                9
            ],
            "name" : "Bone.003",
            "translation" : [
                0,
                1.6634759902954102,
                0
            ]
        },
        {
            "children" : [
                10
            ],
            "name" : "Bone.002",
            "translation" : [
                0,
                1.8764004707336426,
                0
            ]
        },
        {
            "children" : [
                11
            ],
            "name" : "Bone.001",
            "translation" : [
                0,
                1.5190043449401855,
                0
            ]
        },
        {
            "children" : [
                12
            ],
            "name" : "Bone"
        },
        {
            "name" : "IKpole_target",
            "translation" : [
                1.6959562602886355e-15,
                2.744204521179199,
                -2.4557199478149414
            ]
        },
        {
            "mesh" : 8,
            "name" : "Flower body",
            "skin" : 0
        },
        {
            "children" : [
                15,
                13,
                14
            ],
            "name" : "Armature",
            "scale" : [
                0.2971550226211548,
                0.2971550226211548,
                0.2971550226211548
            ],
            "translation" : [
                0.002453520894050598,
                0.25177717208862305,
                -0.0021156370639801025
            ]
        }
    ],
    "meshes" : [
        {
            "name" : "Cylinder.001",
            "primitives" : [
                {
                    "attributes" : {
                        "POSITION" : 0,
                        "NORMAL" : 1,
                        "TEXCOORD_0" : 2
                    },
                    "indices" : 3
                }
            ]
        },
        {
            "name" : "Cylinder.003",
            "primitives" : [
                {
                    "attributes" : {
                        "POSITION" : 4,
                        "NORMAL" : 5,
                        "TEXCOORD_0" : 6
                    },
                    "indices" : 7
                }
            ]
        },
        {
            "name" : "Plane",
            "primitives" : [
                {
                    "attributes" : {
                        "POSITION" : 8,
                        "NORMAL" : 9,
                        "TEXCOORD_0" : 10
                    },
                    "indices" : 11
                }
            ]
        },
        {
            "name" : "Plane.001",
            "primitives" : [
                {
                    "attributes" : {
                        "POSITION" : 12,
                        "NORMAL" : 13,
                        "TEXCOORD_0" : 14
                    },
                    "indices" : 11
                }
            ]
        },
        {
            "name" : "Plane.002",
            "primitives" : [
                {
                    "attributes" : {
                        "POSITION" : 15,
                        "NORMAL" : 16,
                        "TEXCOORD_0" : 17
                    },
                    "indices" : 11
                }
            ]
        },
        {
            "name" : "Plane.003",
            "primitives" : [
                {
                    "attributes" : {
                        "POSITION" : 18,
                        "NORMAL" : 19,
                        "TEXCOORD_0" : 20
                    },
                    "indices" : 11
                }
            ]
        },
        {
            "name" : "Plane.004",
            "primitives" : [
                {
                    "attributes" : {
                        "POSITION" : 21,
                        "NORMAL" : 22,
                        "TEXCOORD_0" : 23
                    },
                    "indices" : 11
                }
            ]
        },
        {
            "name" : "Plane.005",
            "primitives" : [
                {
                    "attributes" : {
                        "POSITION" : 24,
                        "NORMAL" : 25,
                        "TEXCOORD_0" : 26
                    },
                    "indices" : 11
                }
            ]
        },
        {
            "name" : "Cylinder",
            "primitives" : [
                {
                    "attributes" : {
                        "POSITION" : 27,
                        "NORMAL" : 28,
                        "TEXCOORD_0" : 29,
                        "JOINTS_0" : 30,
                        "WEIGHTS_0" : 31
                    },
                    "indices" : 32
                }
            ]
        }
    ],
    "skins" : [
        {
            "inverseBindMatrices" : 33,
            "joints" : [
                13,
                12,
                11,
                10,
                9,
                8,
                14
            ],
            "name" : "Armature"
        }
    ],
    "accessors" : [
        {
            "bufferView" : 0,
            "componentType" : 5126,
            "count" : 704,
            "max" : [
                2.24593448638916,
                1.8953288793563843,
                2.2451467514038086
            ],
            "min" : [
                -2.2459349632263184,
                -1.0974922180175781,
                -2.2459347248077393
            ],
            "type" : "VEC3"
        },
        {
            "bufferView" : 1,
            "componentType" : 5126,
            "count" : 704,
            "type" : "VEC3"
        },
        {
            "bufferView" : 2,
            "componentType" : 5126,
            "count" : 704,
            "type" : "VEC2"
        },
        {
            "bufferView" : 3,
            "componentType" : 5123,
            "count" : 1140,
            "type" : "SCALAR"
        },
        {
            "bufferView" : 4,
            "componentType" : 5126,
            "count" : 4194,
            "max" : [
                34.399478912353516,
                2.596853494644165,
                35.734127044677734
            ],
            "min" : [
                -31.426841735839844,
                -4.301545143127441,
                -36.3203125
            ],
            "type" : "VEC3"
        },
        {
            "bufferView" : 5,
            "componentType" : 5126,
            "count" : 4194,
            "type" : "VEC3"
        },
        {
            "bufferView" : 6,
            "componentType" : 5126,
            "count" : 4194,
            "type" : "VEC2"
        },
        {
            "bufferView" : 7,
            "componentType" : 5123,
            "count" : 6366,
            "type" : "SCALAR"
        },
        {
            "bufferView" : 8,
            "componentType" : 5126,
            "count" : 80,
            "max" : [
                2.4917242527008057,
                0.5309922695159912,
                3.163663387298584
            ],
            "min" : [
                -2.222961664199829,
                -0.2021021842956543,
                -0.29771625995635986
            ],
            "type" : "VEC3"
        },
        {
            "bufferView" : 9,
            "componentType" : 5126,
            "count" : 80,
            "type" : "VEC3"
        },
        {
            "bufferView" : 10,
            "componentType" : 5126,
            "count" : 80,
            "type" : "VEC2"
        },
        {
            "bufferView" : 11,
            "componentType" : 5123,
            "count" : 120,
            "type" : "SCALAR"
        },
        {
            "bufferView" : 12,
            "componentType" : 5126,
            "count" : 80,
            "max" : [
                2.4917242527008057,
                0.5309922695159912,
                3.163663387298584
            ],
            "min" : [
                -2.222961664199829,
                -0.2021021842956543,
                -0.29771625995635986
            ],
            "type" : "VEC3"
        },
        {
            "bufferView" : 13,
            "componentType" : 5126,
            "count" : 80,
            "type" : "VEC3"
        },
        {
            "bufferView" : 14,
            "componentType" : 5126,
            "count" : 80,
            "type" : "VEC2"
        },
        {
            "bufferView" : 15,
            "componentType" : 5126,
            "count" : 80,
            "max" : [
                2.4917242527008057,
                0.5309922695159912,
                3.163663387298584
            ],
            "min" : [
                -2.222961664199829,
                -0.2021021842956543,
                -0.29771625995635986
            ],
            "type" : "VEC3"
        },
        {
            "bufferView" : 16,
            "componentType" : 5126,
            "count" : 80,
            "type" : "VEC3"
        },
        {
            "bufferView" : 17,
            "componentType" : 5126,
            "count" : 80,
            "type" : "VEC2"
        },
        {
            "bufferView" : 18,
            "componentType" : 5126,
            "count" : 80,
            "max" : [
                2.4917242527008057,
                0.5309922695159912,
                3.163663387298584
            ],
            "min" : [
                -2.222961664199829,
                -0.2021021842956543,
                -0.29771625995635986
            ],
            "type" : "VEC3"
        },
        {
            "bufferView" : 19,
            "componentType" : 5126,
            "count" : 80,
            "type" : "VEC3"
        },
        {
            "bufferView" : 20,
            "componentType" : 5126,
            "count" : 80,
            "type" : "VEC2"
        },
        {
            "bufferView" : 21,
            "componentType" : 5126,
            "count" : 80,
            "max" : [
                2.4917242527008057,
                0.5309922695159912,
                3.163663387298584
            ],
            "min" : [
                -2.222961664199829,
                -0.2021021842956543,
                -0.29771625995635986
            ],
            "type" : "VEC3"
        },
        {
            "bufferView" : 22,
            "componentType" : 5126,
            "count" : 80,
            "type" : "VEC3"
        },
        {
            "bufferView" : 23,
            "componentType" : 5126,
            "count" : 80,
            "type" : "VEC2"
        },
        {
            "bufferView" : 24,
            "componentType" : 5126,
            "count" : 80,
            "max" : [
                2.4917242527008057,
                0.5309922695159912,
                3.163663387298584
            ],
            "min" : [
                -2.222961664199829,
                -0.2021021842956543,
                -0.29771625995635986
            ],
            "type" : "VEC3"
        },
        {
            "bufferView" : 25,
            "componentType" : 5126,
            "count" : 80,
            "type" : "VEC3"
        },
        {
            "bufferView" : 26,
            "componentType" : 5126,
            "count" : 80,
            "type" : "VEC2"
        },
        {
            "bufferView" : 27,
            "componentType" : 5126,
            "count" : 2915,
            "max" : [
                0.13762995600700378,
                3.2228145599365234,
                0.13964669406414032
            ],
            "min" : [
                -0.1327229142189026,
                0.23059551417827606,
                -0.14387787878513336
            ],
            "type" : "VEC3"
        },
        {
            "bufferView" : 28,
            "componentType" : 5126,
            "count" : 2915,
            "type" : "VEC3"
        },
        {
            "bufferView" : 29,
            "componentType" : 5126,
            "count" : 2915,
            "type" : "VEC2"
        },
        {
            "bufferView" : 30,
            "componentType" : 5123,
            "count" : 2915,
            "type" : "VEC4"
        },
        {
            "bufferView" : 31,
            "componentType" : 5126,
            "count" : 2915,
            "type" : "VEC4"
        },
        {
            "bufferView" : 32,
            "componentType" : 5123,
            "count" : 4431,
            "type" : "SCALAR"
        },
        {
            "bufferView" : 33,
            "componentType" : 5126,
            "count" : 7,
            "type" : "MAT4"
        }
    ],
    "bufferViews" : [
        {
            "buffer" : 0,
            "byteLength" : 8448,
            "byteOffset" : 0
        },
        {
            "buffer" : 0,
            "byteLength" : 8448,
            "byteOffset" : 8448
        },
        {
            "buffer" : 0,
            "byteLength" : 5632,
            "byteOffset" : 16896
        },
        {
            "buffer" : 0,
            "byteLength" : 2280,
            "byteOffset" : 22528
        },
        {
            "buffer" : 0,
            "byteLength" : 50328,
            "byteOffset" : 24808
        },
        {
            "buffer" : 0,
            "byteLength" : 50328,
            "byteOffset" : 75136
        },
        {
            "buffer" : 0,
            "byteLength" : 33552,
            "byteOffset" : 125464
        },
        {
            "buffer" : 0,
            "byteLength" : 12732,
            "byteOffset" : 159016
        },
        {
            "buffer" : 0,
            "byteLength" : 960,
            "byteOffset" : 171748
        },
        {
            "buffer" : 0,
            "byteLength" : 960,
            "byteOffset" : 172708
        },
        {
            "buffer" : 0,
            "byteLength" : 640,
            "byteOffset" : 173668
        },
        {
            "buffer" : 0,
            "byteLength" : 240,
            "byteOffset" : 174308
        },
        {
            "buffer" : 0,
            "byteLength" : 960,
            "byteOffset" : 174548
        },
        {
            "buffer" : 0,
            "byteLength" : 960,
            "byteOffset" : 175508
        },
        {
            "buffer" : 0,
            "byteLength" : 640,
            "byteOffset" : 176468
        },
        {
            "buffer" : 0,
            "byteLength" : 960,
            "byteOffset" : 177108
        },
        {
            "buffer" : 0,
            "byteLength" : 960,
            "byteOffset" : 178068
        },
        {
            "buffer" : 0,
            "byteLength" : 640,
            "byteOffset" : 179028
        },
        {
            "buffer" : 0,
            "byteLength" : 960,
            "byteOffset" : 179668
        },
        {
            "buffer" : 0,
            "byteLength" : 960,
            "byteOffset" : 180628
        },
        {
            "buffer" : 0,
            "byteLength" : 640,
            "byteOffset" : 181588
        },
        {
            "buffer" : 0,
            "byteLength" : 960,
            "byteOffset" : 182228
        },
        {
            "buffer" : 0,
            "byteLength" : 960,
            "byteOffset" : 183188
        },
        {
            "buffer" : 0,
            "byteLength" : 640,
            "byteOffset" : 184148
        },
        {
            "buffer" : 0,
            "byteLength" : 960,
            "byteOffset" : 184788
        },
        {
            "buffer" : 0,
            "byteLength" : 960,
            "byteOffset" : 185748
        },
        {
            "buffer" : 0,
            "byteLength" : 640,
            "byteOffset" : 186708
        },
        {
            "buffer" : 0,
            "byteLength" : 34980,
            "byteOffset" : 187348
        },
        {
            "buffer" : 0,
            "byteLength" : 34980,
            "byteOffset" : 222328
        },
        {
            "buffer" : 0,
            "byteLength" : 23320,
            "byteOffset" : 257308
        },
        {
            "buffer" : 0,
            "byteLength" : 23320,
            "byteOffset" : 280628
        },
        {
            "buffer" : 0,
            "byteLength" : 46640,
            "byteOffset" : 303948
        },
        {
            "buffer" : 0,
            "byteLength" : 8862,
            "byteOffset" : 350588
        },
        {
            "buffer" : 0,
            "byteLength" : 448,
            "byteOffset" : 359452
        }
    ],
    "buffers" : [
        {
            "byteLength" : 359900,
            "uri" : "data:application/octet-stream;base64,"
        }
    ]
}
